<svg width="235" height="82" viewBox="0 0 235 82" fill="none" xmlns="http://www.w3.org/2000/svg">
<path d="M193.37 14.5135V14.1868C193.37 14.1051 193.451 14.0235 193.451 13.9418C193.451 13.9418 193.778 13.9418 193.696 13.7785V13.4518C193.696 13.3701 193.696 13.3701 193.615 13.2885C193.615 13.2068 193.615 13.1251 193.615 13.0435C193.615 13.0435 193.86 13.0435 193.86 12.8801V12.5535C193.86 12.4718 193.778 12.3901 193.696 12.3901V12.3085C193.696 12.3085 193.941 12.3085 193.86 12.1451V11.9001C193.86 11.8185 193.778 11.7368 193.696 11.7368C193.696 11.6551 193.696 11.6551 193.696 11.5735C193.696 11.5735 193.941 11.5735 193.86 11.4101V11.0835C193.86 11.0018 193.778 10.9201 193.615 10.9201C193.615 10.8385 193.615 10.7568 193.615 10.7568C193.615 10.7568 193.696 10.7568 193.696 10.6751V10.3485C193.696 10.2668 193.615 10.1851 193.451 10.1851C193.451 10.1035 193.451 10.1035 193.37 10.0218C193.37 10.0218 193.451 10.0218 193.451 9.94013V9.61346C193.451 9.5318 193.37 9.45013 193.288 9.45013V9.36847L192.961 8.7968C186.836 8.47013 184.631 11.6551 183.978 14.1051C179.895 13.8601 176.792 11.6551 174.75 9.7768V8.7968V8.63346V7.89846H174.831L174.75 7.73513H174.423H174.75L174.586 7.00013V6.75513H174.75H174.668V6.51013V6.75513H174.505H174.668V7.00013L174.586 7.24513L174.423 6.67346V6.42847H174.586H174.423V6.18347V6.42847H174.26H174.423V6.67346L174.26 7.24513L173.851 5.77513L173.361 7.49013L173.28 7.16346V7.00013H173.443H173.28V6.75513V7.00013H173.117H173.28V7.24513L173.198 7.49013L173.035 6.8368V6.5918H173.198H173.035V6.3468V6.5918H172.871H173.035V6.8368L172.871 7.5718L172.79 7.73513H172.871V8.5518H172.79V8.96013L163.398 9.36847V9.2868V8.5518H163.48L163.398 8.38846L163.235 7.65347V7.40846H163.316H163.235V7.16346V7.40846H163.071H163.235V7.65347L163.071 8.22513L162.908 8.14347L162.826 8.0618L162.663 7.3268V7.0818H162.826H162.663V6.8368V7.0818H162.581H162.663V7.3268L162.581 7.49013L162.255 6.18347L161.765 7.98013C161.765 7.98013 161.765 8.0618 161.683 8.0618H161.356L161.193 7.3268V7.0818H161.356H161.193V6.8368V7.0818H161.111H161.193V7.3268L161.03 8.0618L160.948 8.22513H161.03V9.0418H160.948V10.3485C157.6 13.6151 154.905 14.5135 153.925 14.6768C153.108 14.5135 151.883 14.1868 150.985 13.2885V13.1251L149.515 12.8801H148.616V14.3501H147.718V14.8401H146.738V8.71513L146.82 8.63346V8.47013H146.656C146.656 8.0618 146.166 7.73513 146.003 7.65347V7.40846H146.085V7.24513V7.00013H146.33V6.91847H146.085V6.18347H146.003V6.8368H145.758V6.91847H146.003V7.3268H145.921V7.49013H146.003V7.8168C145.84 7.98013 145.431 8.3068 145.431 8.63346H145.268V8.7968L145.431 8.87847H145.513V10.2668H145.023V10.6751H144.86V10.3485H144.37V10.6751H144.206V10.3485H143.88V9.45013L144.043 9.36847V9.20513H143.88C143.88 8.71513 143.308 8.38846 143.145 8.3068V7.98013H143.226V7.8168H143.145V7.49013H143.39V7.40846H143.145V6.75513H143.063V7.40846H142.818V7.49013H143.063V7.8168H142.818V7.98013H142.9V8.3068C142.655 8.47013 142.165 8.87847 142.165 9.2868H142.001V9.45013L142.165 9.5318V10.6751H142.001V10.3485H141.511V10.6751H141.348V10.2668H140.858V10.6751H140.695V10.3485H140.205V10.6751H140.041V10.2668H139.796V8.87847L139.96 8.7968V8.63346H139.796C139.796 8.3068 139.388 7.98013 139.143 7.8168V7.40846H139.225V7.24513H139.143V6.8368H139.388V6.75513H139.143V6.18347H139.061V6.8368H138.816V6.91847H139.061V7.3268H138.98V7.49013H139.061V7.89846C138.898 7.98013 138.326 8.38847 138.326 8.87847H138.163V9.0418L138.326 9.12346V10.4301L137.346 10.6751V9.69514L137.51 9.61346V9.45013H137.346C137.346 9.12347 137.02 8.87846 136.775 8.7968V8.38846H136.856V8.22513H136.775V7.8168H137.02V7.73513H136.775V7.0818H136.693V7.73513H136.448V7.8168H136.693V8.14347H136.611V8.3068H136.693V8.71513C136.53 8.7968 136.121 9.12347 136.121 9.45013L135.958 9.5318V9.69514L136.04 9.7768V15.0035H135.386V13.1251L134.815 11.3285L134.325 13.1251V15.0035H133.671L132.61 10.6751L129.67 11.0018C129.588 8.87847 129.18 6.8368 128.771 5.1218C128.771 5.04013 128.771 5.04013 128.771 5.04013C128.771 4.95846 128.69 4.79513 128.69 4.71346V4.6318C128.608 4.22346 128.445 3.81513 128.281 3.48846C128.281 3.48846 128.281 3.48846 128.281 3.4068C128.281 3.32513 128.2 3.24347 128.2 3.1618C128.2 3.1618 128.2 3.08013 128.118 3.08013C128.118 2.99846 128.036 2.9168 128.036 2.83513C128.036 2.83513 128.036 2.75347 127.955 2.75347C127.955 2.6718 127.873 2.59013 127.873 2.50846C127.873 2.4268 127.873 2.4268 127.791 2.4268C127.791 2.34513 127.71 2.26346 127.71 2.26346L127.628 2.1818C127.628 2.10013 127.546 2.10013 127.546 2.01847L127.465 1.9368C127.465 1.85513 127.383 1.85513 127.383 1.77346L127.301 1.6918C127.301 1.61013 127.22 1.61013 127.22 1.61013L127.138 1.52847L127.056 1.44679L126.975 1.36513L126.893 1.28346L126.811 1.2018C126.811 1.2018 126.73 1.2018 126.73 1.12013C126.73 1.12013 126.648 1.12013 126.648 1.03846C126.648 1.03846 126.648 1.03846 126.566 1.03846C126.485 1.03846 126.485 1.03846 126.403 1.03846C126.321 1.03846 126.321 1.03846 126.24 1.03846C126.24 1.03846 126.24 1.03846 126.158 1.03846C126.158 1.03846 126.076 1.03847 126.076 1.12013H125.995L125.913 1.2018C125.913 1.2018 125.831 1.2018 125.831 1.28346L125.75 1.36513L125.668 1.44679L125.586 1.52847L125.505 1.61013C125.505 1.6918 125.423 1.6918 125.423 1.77346L125.341 1.85513C125.341 1.93679 125.26 1.9368 125.26 2.01847L125.178 2.10013C125.178 2.1818 125.096 2.18179 125.096 2.26346C125.096 2.34513 125.015 2.34513 125.015 2.4268C125.015 2.50847 124.933 2.59013 124.933 2.59013C124.933 2.6718 124.851 2.6718 124.851 2.75347C124.851 2.83513 124.77 2.9168 124.77 2.99846C124.77 3.08013 124.688 3.08013 124.688 3.1618C124.688 3.24347 124.606 3.32513 124.606 3.4068C124.606 3.48846 124.606 3.48847 124.525 3.57013C124.525 3.6518 124.443 3.81513 124.443 3.8968V3.97847C124.361 4.1418 124.361 4.30513 124.28 4.3868C124.28 4.46847 124.28 4.46846 124.198 4.55013C124.198 4.6318 124.116 4.71347 124.116 4.8768C124.116 4.95847 124.035 5.04013 124.035 5.1218C124.035 5.20346 123.953 5.28513 123.953 5.3668C123.708 6.26513 123.545 7.16347 123.381 8.14347C123.381 8.14347 123.136 8.87846 123.136 9.94013C122.973 11.6551 122.973 13.5335 123.136 15.1668H121.013V14.0235V13.2885L120.605 14.0235L120.115 12.2268H119.298V9.7768H118.236V5.3668L117.42 4.55013V1.52847H114.806V3.48846H113.908V10.4301H113.745V10.1035L113.826 10.0218H113.663C113.663 10.0218 113.663 9.94014 113.418 9.69514V9.45013V9.12346L113.5 9.0418H113.091V8.38846H113.173L112.765 7.98013C112.765 7.98013 112.846 6.51013 111.213 5.8568L111.376 5.69347V5.53013H111.131V5.3668V4.71346H111.213V4.6318H110.968V4.22346C110.968 4.22346 110.968 4.1418 110.886 3.97847V3.8968H110.805V3.73346L110.886 3.6518C110.886 3.57013 110.886 3.57013 110.805 3.57013V3.4068H110.723V3.57013L110.641 3.6518C110.641 3.73347 110.641 3.73346 110.723 3.73346V3.8968H110.641V3.97847C110.56 4.06013 110.56 4.22346 110.56 4.22346V4.6318H110.315V4.71346H110.396V5.3668V5.53013H110.151V5.69347L110.315 5.8568C108.763 6.51013 108.763 7.98013 108.763 7.98013L108.355 8.38846H108.436V9.0418H108.028L108.11 9.12346V9.45013V9.5318C107.865 9.7768 107.865 9.85847 107.865 9.85847H107.701L107.783 9.94013V10.2668H107.538L107.62 10.3485V11.1651H107.538L107.62 11.2468V11.4918H107.375V11.7368H107.456V11.9818H106.231V11.9001H105.905V11.9818V12.6351L106.068 12.7985V14.1051C105.496 14.1051 105.415 14.3501 105.415 14.3501H105.17L105.251 14.4318H105.006L105.251 14.6768V14.9218H104.761L104.19 12.7985H100.923L100.106 14.9218L99.6981 14.1868L99.3715 14.9218H98.1465V14.7585C98.5548 14.5135 98.9631 14.1868 99.3715 13.7785C99.3715 13.9418 99.5348 14.1051 99.6981 14.1051C99.8615 14.1051 100.025 13.9418 100.025 13.7785C100.025 13.6151 99.8615 13.4518 99.6981 13.4518C99.9431 13.2068 100.188 12.8801 100.351 12.6351C100.351 12.7985 100.515 12.8801 100.678 12.8801C100.841 12.8801 101.005 12.7168 101.005 12.5535C101.005 12.3901 100.841 12.2268 100.678 12.2268C100.678 12.2268 100.678 12.2268 100.596 12.2268C100.76 11.9001 100.923 11.5735 101.086 11.2468C101.168 11.3285 101.25 11.4101 101.331 11.4101C101.495 11.4101 101.658 11.2468 101.658 11.0835C101.658 10.9201 101.495 10.7568 101.331 10.7568H101.25C101.331 10.4301 101.495 10.1035 101.495 9.7768C101.576 9.85847 101.658 9.85847 101.74 9.85847C101.903 9.85847 102.066 9.69513 102.066 9.5318C102.066 9.36846 101.903 9.20513 101.74 9.20513C101.658 9.20513 101.658 9.20513 101.576 9.2868C101.576 8.96013 101.658 8.71513 101.658 8.38846V8.3068C101.74 8.3068 101.74 8.38846 101.821 8.38846C101.985 8.38846 102.148 8.22513 102.148 8.0618C102.148 7.89847 101.985 7.73513 101.821 7.73513C101.74 7.73513 101.658 7.73513 101.658 7.8168C101.658 7.49013 101.576 7.16347 101.495 6.8368C101.495 6.8368 101.495 6.8368 101.576 6.8368C101.74 6.8368 101.903 6.67347 101.903 6.51013C101.903 6.3468 101.74 6.18347 101.576 6.18347C101.495 6.18347 101.413 6.18346 101.413 6.26513C101.331 5.93846 101.25 5.69346 101.086 5.3668C101.25 5.3668 101.413 5.20346 101.413 5.04013C101.413 4.8768 101.25 4.71346 101.086 4.71346C101.005 4.71346 100.923 4.79513 100.841 4.8768C100.678 4.6318 100.515 4.30513 100.351 4.06013C100.515 4.06013 100.678 3.8968 100.678 3.73346C100.678 3.57013 100.515 3.4068 100.351 3.4068C100.188 3.4068 100.106 3.48847 100.025 3.6518C99.7798 3.4068 99.6165 3.1618 99.3715 2.9168C99.5348 2.9168 99.6165 2.75346 99.6165 2.59013C99.6165 2.4268 99.4531 2.26346 99.2898 2.26346C99.1265 2.26346 98.9631 2.4268 98.9631 2.59013C98.7181 2.34513 98.3915 2.1818 98.1465 2.01847C98.3098 2.01847 98.3915 1.85513 98.3915 1.6918C98.3915 1.52846 98.2281 1.36513 98.0648 1.36513C97.9015 1.36513 97.7381 1.52846 97.7381 1.6918V1.77346C97.4115 1.61013 97.0848 1.4468 96.7581 1.36513C96.8398 1.28346 96.9215 1.2018 96.9215 1.12013C96.9215 0.956799 96.7581 0.793465 96.5948 0.793465C96.4315 0.793465 96.2681 0.956799 96.2681 1.12013C96.2681 1.2018 96.2681 1.2018 96.2681 1.28346C95.9415 1.2018 95.6148 1.12013 95.2881 1.03846C95.3698 0.956795 95.3698 0.875132 95.3698 0.793465C95.3698 0.630131 95.2065 0.466797 95.0431 0.466797C94.8798 0.466797 94.7165 0.630131 94.7165 0.793465C94.7165 0.875132 94.7165 0.956796 94.7981 0.956796C94.5531 0.956796 94.3081 0.956796 94.0631 0.956796H93.9815H93.8998H93.8181C93.8181 0.875129 93.8181 0.875132 93.8181 0.793465C93.8181 0.630131 93.6548 0.466797 93.4915 0.466797C93.3281 0.466797 93.1648 0.630131 93.1648 0.793465C93.1648 0.875132 93.1648 0.875129 93.2465 0.956796C92.9198 0.956796 92.5931 1.03847 92.2665 1.12013V1.03846C92.2665 0.875128 92.1031 0.711799 91.9398 0.711799C91.7765 0.711799 91.6131 0.875128 91.6131 1.03846C91.6131 1.12013 91.6131 1.2018 91.6948 1.28346C91.3681 1.36513 91.0415 1.4468 90.7965 1.61013C90.7965 1.4468 90.6331 1.28346 90.4698 1.28346C90.3065 1.28346 90.1431 1.4468 90.1431 1.61013C90.1431 1.6918 90.2248 1.77346 90.3065 1.85513C89.9798 2.01846 89.7348 2.1818 89.4898 2.34513C89.4898 2.1818 89.3265 2.10013 89.1631 2.10013C88.9998 2.10013 88.8365 2.26347 88.8365 2.4268C88.8365 2.50847 88.9181 2.67179 88.9998 2.67179C88.7548 2.83513 88.5098 3.08013 88.3465 3.32513C88.2648 3.1618 88.1831 3.08013 88.1015 3.08013C87.9381 3.08013 87.7748 3.24346 87.7748 3.4068C87.7748 3.57013 87.8565 3.6518 88.0198 3.73346C87.7748 3.97846 87.6115 4.30513 87.4481 4.55013C87.3665 4.46846 87.2848 4.3868 87.2031 4.3868C87.0398 4.3868 86.8765 4.55013 86.8765 4.71346C86.8765 4.8768 87.0398 5.04013 87.2031 5.04013C87.0398 5.28513 86.9581 5.6118 86.7948 5.8568C86.7131 5.77513 86.6315 5.77513 86.5498 5.77513C86.3865 5.77513 86.2231 5.93847 86.2231 6.1018C86.2231 6.26513 86.3865 6.42847 86.5498 6.42847C86.5498 6.42847 86.5498 6.42847 86.6315 6.42847C86.5498 6.75513 86.4681 7.00013 86.4681 7.3268C86.3865 7.3268 86.3865 7.24513 86.3048 7.24513C86.1415 7.24513 85.9781 7.40846 85.9781 7.5718C85.9781 7.73513 86.1415 7.89846 86.3048 7.89846H86.3865C86.3865 8.0618 86.3865 8.3068 86.3865 8.47013C86.3865 8.63347 86.3865 8.71513 86.3865 8.87847C86.3048 8.7968 86.2231 8.7968 86.1415 8.7968C85.9781 8.7968 85.8148 8.96013 85.8148 9.12346C85.8148 9.2868 85.9781 9.45013 86.1415 9.45013C86.2231 9.45013 86.3048 9.36847 86.3865 9.2868C86.3865 9.61347 86.4681 9.94013 86.5498 10.2668C86.4681 10.1851 86.3865 10.1851 86.3048 10.1851C86.1415 10.1851 85.9781 10.3485 85.9781 10.5118C85.9781 10.6751 86.1415 10.8385 86.3048 10.8385C86.4681 10.8385 86.5498 10.7568 86.6315 10.5935C87.2031 12.3901 88.4281 13.9418 90.0615 14.9218H83.9365V8.7968L84.0998 8.3068V6.1018V6.02013L84.0181 5.3668L83.9365 6.02013L83.8548 5.3668L83.7731 6.02013H84.0181L83.6915 5.04013V4.22346L83.2015 2.4268V1.6918L83.1198 2.4268L82.6298 4.22346V5.04013L82.4665 5.44846V5.3668L82.3848 5.77513L82.3031 6.02013H82.2215L82.1398 5.3668L82.0581 6.02013V6.1018V8.3068L82.1398 8.7968V12.5535L81.9765 12.4718V12.1451L81.8131 11.3285L81.6498 12.1451V12.3901L80.5065 11.9818V11.3285V11.0835V10.3485L80.3431 9.36847L80.1798 10.1035L80.0165 9.2868L79.8531 10.2668H79.0365L78.8731 9.36847L78.7098 10.2668V10.3485L78.6281 11.0018V10.2668L78.4648 9.2868L78.3015 10.2668V11.0018V11.3285V11.8185H76.8315V11.3285V11.0835V10.3485L76.6681 9.36847L76.5048 10.1035L76.3415 9.2868L76.1781 10.2668H75.3615L75.1981 9.36847L75.0348 10.2668V10.3485L74.9531 11.0018V10.2668L74.7898 9.2868L74.6265 10.2668V11.0018V11.3285V12.3085L66.0515 12.5535V11.7368V11.0018V10.7568L65.8881 9.85847L65.7248 10.7568V10.9201H65.6431V10.7568L65.4798 9.85847L65.3165 10.7568H64.6631L64.4998 9.94013L64.3365 10.7568H64.1731V10.8385L64.0915 11.4101V10.7568L63.9281 9.85847L63.7648 10.7568V11.4101V11.7368V11.9818L57.0681 12.1451V12.0635V11.4101V11.1651L56.9048 10.3485L56.7415 11.1651V11.3285H56.5781V11.0835L56.4148 10.2668L56.2515 11.0835H55.9248L55.7615 10.2668L55.5981 11.0835H55.3531V8.0618V6.8368V6.75513H55.2715V6.51013H55.1898V6.18347C55.1898 6.1018 55.1081 6.02013 55.0265 6.02013V5.6118H54.9448V6.02013C54.8631 6.02013 54.7815 6.1018 54.7815 6.18347V6.51013H54.6998V6.75513H54.6181V6.8368V7.49013L54.1281 7.16346L54.0465 6.67346V6.5918V6.42847H53.9648V6.26513V6.1018L53.6381 3.81513H53.5565L53.2298 6.1018C53.2298 6.02013 53.1481 5.93846 53.0665 5.93846V5.53013H52.9848V5.93846C52.9031 5.93846 52.8215 6.02013 52.8215 6.1018V6.42847H52.7398V6.67346H52.6581V6.75513V7.0818H52.0048V6.51013V6.3468H51.9231V6.18347H51.8415V5.8568C51.8415 5.77513 51.7598 5.69347 51.6781 5.6118V5.20347H51.5965V5.6118C51.5148 5.6118 51.4331 5.69346 51.4331 5.8568V6.18347H51.3515V6.51013H51.2698V6.67346V7.24513V7.49013V13.0435H47.7581V12.8801V12.3085V12.1451L47.6765 11.4918L47.5948 12.1451V12.3085L47.1048 12.2268V12.0635L47.0231 11.4101L46.9415 12.0635H46.8598L46.7781 11.4101L46.6965 12.0635H46.2065L46.0431 12.5535V12.0635L45.9615 11.4101L45.8798 12.0635V12.5535V12.7985V14.9218H44.3281V16.8818H89.6531V17.2901H92.8381V16.8818H93.5731C93.5731 16.9635 93.5731 16.9635 93.5731 16.9635C93.5731 16.9635 93.5731 16.9635 93.5731 16.8818H95.6965C95.7781 16.9635 95.7781 17.0451 95.7781 17.0451L96.1865 17.2901H97.9831V16.8818H147.718V16.8001H148.943V16.3918C150.658 15.6568 152.945 15.4118 153.516 15.4118C154.088 15.4118 156.701 15.2485 159.233 16.3918V17.2085H162.173H163.398V15.7385C164.95 15.3301 166.501 15.0035 166.991 15.0035C167.645 15.0035 170.095 15.1668 171.401 15.6568V17.1268H175.566V15.7385C177.118 15.2485 178.751 15.1668 179.242 15.1668C179.731 15.1668 181.446 15.0851 183.488 15.7385C183.488 15.9018 183.488 16.0651 183.488 16.2285C183.488 16.2285 183.978 16.2285 184.795 16.2285C184.876 16.2285 184.876 16.3101 184.958 16.3101V16.2285C186.02 16.2285 187.49 16.2285 188.878 16.2285V17.2085H195.656V14.5135H193.37ZM101.413 6.75513C101.413 6.8368 101.495 6.8368 101.413 6.75513C101.576 7.3268 101.658 7.89847 101.658 8.5518C101.658 10.2668 101.005 11.9001 100.025 13.2068C101.005 11.9001 101.658 10.3485 101.658 8.5518C101.658 6.8368 101.086 5.20347 100.025 3.97847C100.678 4.79513 101.168 5.69346 101.413 6.75513ZM86.9581 8.5518C86.9581 6.8368 87.6115 5.20347 88.5915 3.97847C87.6115 5.20347 87.0398 6.8368 86.9581 8.5518C87.0398 10.2668 87.6115 11.9001 88.5915 13.2068C87.6115 11.9001 86.9581 10.3485 86.9581 8.5518ZM95.2065 14.9218H94.2265L94.4715 10.0218L95.5331 14.8401C95.3698 14.9218 95.2881 14.9218 95.2065 14.9218ZM94.7981 9.85847C94.7981 9.85847 94.7165 9.61347 94.6348 9.36847L94.8798 9.2868C95.1248 9.0418 95.0431 8.71513 94.8798 8.5518C94.7981 8.38847 94.7165 8.3068 94.5531 8.3068C94.4715 8.22513 94.3898 8.22513 94.3081 8.22513C94.0631 8.22513 93.8998 8.38847 93.8998 8.63346C93.8998 8.7968 93.9815 8.87847 94.0631 8.96013V9.0418L94.2265 9.20513C94.1448 9.5318 94.1448 9.85847 94.1448 9.85847L93.8998 15.1668H93.4915C92.1031 15.0035 90.7965 14.3501 89.7348 13.3701C88.5098 12.1451 87.8565 10.5118 87.8565 8.7968C87.8565 7.0818 88.5098 5.44846 89.7348 4.22346C90.9598 2.99846 92.5931 2.34513 94.3081 2.34513C97.9015 2.34513 100.76 5.20346 100.76 8.7968C100.76 11.8185 98.6365 14.3501 95.8598 15.0851L94.7981 9.85847ZM97.5748 14.9218H95.9415V14.8401C98.7998 14.1051 100.923 11.5735 100.923 8.47013C100.923 4.8768 97.9831 1.9368 94.3898 1.9368C92.6748 1.9368 90.9598 2.59013 89.7348 3.81513C88.5098 5.04013 87.8565 6.67347 87.8565 8.47013C87.8565 10.1851 88.5098 11.9001 89.7348 13.1251C90.6331 14.0235 91.7765 14.6768 93.0015 14.9218H91.1231C88.8365 13.6968 87.2848 11.3285 87.2848 8.5518C87.2848 4.6318 90.4698 1.36513 94.3898 1.36513C98.3098 1.4468 101.495 4.6318 101.495 8.5518C101.495 11.3285 99.8615 13.7785 97.5748 14.9218ZM150.413 13.5335C151.148 14.1868 152.046 14.5135 152.781 14.7585C152.291 14.7585 151.311 14.5951 150.413 14.1051V13.5335ZM149.351 15.0035V14.4318H149.188C149.27 14.0235 149.351 13.7785 149.678 13.7785C149.76 13.8601 149.841 13.8601 149.923 13.9418C150.005 14.1051 150.086 14.5135 150.086 14.9218H150.413V14.1051C151.801 14.7585 153.108 14.7585 153.19 14.7585C153.271 14.7585 153.353 14.7585 153.435 14.7585C153.843 14.8401 154.088 14.8401 154.251 14.8401L149.351 15.0035ZM160.458 14.5951H159.56V14.7585L154.333 14.9218C154.986 14.8401 157.355 14.1868 160.458 11.4101V14.5951ZM160.458 11.2468C158.906 12.6351 157.518 13.5335 156.62 13.9418C155.313 14.5951 154.496 14.7585 154.251 14.7585C154.251 14.7585 154.006 14.7585 153.761 14.7585C154.905 14.4318 157.436 13.4518 160.376 10.5935L160.458 11.0835V11.2468ZM172.545 10.6751V14.5135H171.81V14.6768L163.725 14.7585V14.5951H162.99V11.2468L163.071 10.7568V10.1851L172.463 9.85847V10.1035L172.545 10.6751ZM175.975 14.6768V14.5135H174.75V10.7568L174.505 10.6751L174.75 10.7568L174.831 10.2668V10.1035C175.893 11.4101 178.016 13.7785 181.365 14.5951L175.975 14.6768ZM183.978 14.6768H181.936C178.506 14.0235 176.22 11.6551 175.076 10.2668C177.118 12.1451 180.14 14.1051 184.06 14.3501C184.06 14.4318 183.978 14.5951 183.978 14.6768ZM88.4281 13.2885C88.4281 13.1251 88.2648 12.9618 88.1015 12.9618C87.9381 12.9618 87.7748 13.1251 87.7748 13.2885C87.7748 13.4518 87.9381 13.6151 88.1015 13.6151C88.2648 13.6151 88.4281 13.5335 88.4281 13.2885ZM87.6115 11.9818C87.6115 11.8185 87.4481 11.6551 87.2848 11.6551C87.1215 11.6551 86.9581 11.8185 86.9581 11.9818C86.9581 12.1451 87.1215 12.3085 87.2848 12.3085C87.5298 12.3085 87.6115 12.1451 87.6115 11.9818Z" fill="black"/>
<path d="M198.188 15.9014H42.5312V21.2914H198.188V15.9014Z" fill="white"/>
<path d="M44.6562 18.0254H195.985" stroke="black" stroke-width="0.75"/>
<path d="M44.6562 16.7998H195.985" stroke="black" stroke-width="0.75"/>
<path d="M219.83 42.0353H216.972C214.032 42.0353 211.908 40.9737 211.908 37.7887C211.908 35.1754 213.868 33.7054 216.808 33.7054H219.912V42.0353H219.83ZM232.815 57.1437V25.5387H211.255C203.333 25.5387 198.678 31.4187 198.678 37.6254C198.678 41.5454 200.23 45.7103 204.313 48.1603L196.31 62.5337H211.745L217.462 50.2837H219.34V62.5337H234.612C232.815 60.247 232.815 57.1437 232.815 57.1437ZM195.82 25.5387H181.447L169.687 45.8737H169.523V25.5387H155.068C156.783 27.8254 156.783 30.9287 156.783 30.9287V62.5337H171.402L183.08 42.362H183.243V62.5337H197.535C195.82 60.1653 195.82 57.1437 195.82 57.1437V25.5387ZM153.108 25.5387H117.828C119.543 27.8254 119.543 30.9287 119.543 30.9287V44.4037C119.543 48.8137 119.298 52.8154 116.032 52.8154C115.378 52.8154 114.235 52.652 113.663 52.4887L114.725 62.207C116.44 62.6153 119.135 63.0237 122.157 63.0237C130.242 63.0237 133.018 55.5103 133.018 46.037V36.4004H139.47V62.5337H154.742C152.945 60.247 152.945 57.1437 152.945 57.1437V25.5387H153.108ZM100.597 36.4004H115.705V25.5387H85.3251C87.04 27.8254 87.04 30.9287 87.04 30.9287V62.5337H102.312C100.597 60.247 100.597 57.1437 100.597 57.1437V36.4004ZM18.3584 45.8737L21.7067 33.2154H21.7884L25.4634 45.8737H18.3584ZM83.2017 25.5387H67.9301C69.6451 27.8254 69.6451 30.9287 69.6451 30.9287V38.2787H58.1301V25.457H42.8584C44.655 27.7437 44.655 30.847 44.655 30.847V62.5337L31.425 25.5387H9.94672C11.4984 29.2137 10.6817 31.827 10.6817 31.827L0.636719 62.5337H14.1934L16.3167 54.4487H28.1584L30.5267 62.5337H44.7367H60.0084C58.2934 60.247 58.2934 57.1437 58.2934 57.1437V49.1404H69.8084V62.5337H85.0801C83.3651 60.247 83.3651 57.307 83.3651 57.1437V25.5387" fill="black"/>
<path d="M75.876 77H74.563L72.769 72.45H72.73L72.769 72.788V77H70.793V70.396H73.419L75.213 75.037H75.226L77.02 70.396H79.646V77H77.67V72.788L77.709 72.45H77.67L75.876 77ZM86.2063 75.089H88.2083C87.8097 76.5277 86.6657 77.247 84.7763 77.247C84.213 77.247 83.6713 77.1517 83.1513 76.961C82.7787 76.8137 82.4667 76.6273 82.2153 76.402C81.9293 76.1507 81.691 75.7867 81.5003 75.31C81.3183 74.8333 81.2273 74.2917 81.2273 73.685C81.2273 72.5757 81.5653 71.709 82.2413 71.085C82.926 70.461 83.823 70.149 84.9323 70.149C86.241 70.201 87.1337 70.5997 87.6103 71.345C87.9137 71.7957 88.1087 72.2637 88.1953 72.749C88.2387 72.957 88.2733 73.1563 88.2993 73.347L88.3383 73.815L88.3513 74.179H83.2813C83.2813 74.6037 83.4027 75.0023 83.6453 75.375C83.8967 75.739 84.304 75.921 84.8673 75.921C85.1967 75.921 85.4827 75.8517 85.7253 75.713C85.968 75.5657 86.1283 75.3577 86.2063 75.089ZM83.2813 73.074H86.2973C86.2887 72.7447 86.2367 72.4673 86.1413 72.242C86.046 72.008 85.9203 71.8433 85.7643 71.748C85.6083 71.644 85.461 71.5747 85.3223 71.54C85.1923 71.4967 85.0537 71.475 84.9063 71.475C84.3863 71.475 83.9877 71.6397 83.7103 71.969C83.4503 72.2897 83.3073 72.658 83.2813 73.074ZM89.2226 78.716L89.1186 75.674H89.9896C90.6743 74.6513 91.0166 73.2993 91.0166 71.618V70.396H96.6716V75.674H97.7636L97.6596 78.716H95.9696V77H90.9126V78.716H89.2226ZM94.6956 75.674V71.722H92.8366V72.411C92.8366 73.633 92.5723 74.7207 92.0436 75.674H94.6956ZM100.92 70.396V74.686L103.624 70.396H105.717V77H103.741V72.71L101.05 77H98.9441V70.396H100.92ZM109.636 72.528H107.751C107.794 71.5833 108.232 70.903 109.064 70.487C109.272 70.3743 109.502 70.2963 109.753 70.253C110.152 70.1837 110.52 70.149 110.858 70.149C112.045 70.149 112.856 70.396 113.289 70.89C113.575 71.176 113.744 71.4793 113.796 71.8C113.857 72.0427 113.887 72.3157 113.887 72.619L113.848 75.635C113.839 76.077 113.861 76.3847 113.913 76.558C113.965 76.7313 114.073 76.8397 114.238 76.883V77H112.158L111.989 76.35H111.95C111.482 76.948 110.745 77.247 109.74 77.247C109.341 77.247 108.99 77.195 108.687 77.091C108.392 76.9957 108.167 76.8787 108.011 76.74C107.864 76.6013 107.742 76.4367 107.647 76.246C107.552 76.0553 107.491 75.8907 107.465 75.752C107.448 75.6133 107.439 75.4747 107.439 75.336C107.439 74.7813 107.608 74.3437 107.946 74.023C108.076 73.893 108.267 73.7717 108.518 73.659C108.83 73.5117 109.289 73.3817 109.896 73.269C110.104 73.2343 110.29 73.2127 110.455 73.204C110.966 73.1433 111.239 73.1087 111.274 73.1C111.499 73.0567 111.655 72.996 111.742 72.918C111.837 72.84 111.894 72.71 111.911 72.528V72.346C111.885 71.7653 111.53 71.475 110.845 71.475C110.039 71.475 109.636 71.826 109.636 72.528ZM111.924 74.27V73.854C111.638 73.9927 111.447 74.0663 111.352 74.075C111.127 74.1097 110.884 74.153 110.624 74.205C109.853 74.3263 109.467 74.6427 109.467 75.154C109.467 75.414 109.562 75.609 109.753 75.739C109.952 75.8603 110.195 75.921 110.481 75.921C110.68 75.921 110.88 75.882 111.079 75.804C111.304 75.7087 111.499 75.5267 111.664 75.258C111.837 74.9807 111.924 74.6513 111.924 74.27ZM119.769 74.335H116.012V72.71H119.769V74.335ZM126.427 71.722H123.892V77H121.916V70.396H128.403V77H126.427V71.722ZM129.988 73.685C129.988 73.061 130.088 72.515 130.287 72.047C130.487 71.5703 130.76 71.202 131.106 70.942C131.462 70.6733 131.847 70.474 132.263 70.344C132.679 70.214 133.126 70.149 133.603 70.149C134.686 70.149 135.557 70.448 136.216 71.046C136.883 71.644 137.217 72.5237 137.217 73.685C137.217 74.8463 136.883 75.7347 136.216 76.35C135.557 76.948 134.686 77.247 133.603 77.247C132.519 77.247 131.644 76.948 130.976 76.35C130.318 75.7433 129.988 74.855 129.988 73.685ZM135.163 73.685C135.163 72.2117 134.643 71.475 133.603 71.475C132.562 71.475 132.042 72.2117 132.042 73.685C132.042 75.1757 132.562 75.921 133.603 75.921C134.643 75.921 135.163 75.1757 135.163 73.685ZM138.774 79.405V70.396H140.633L140.62 71.189H140.659C141.223 70.4957 141.933 70.149 142.791 70.149C143.719 70.149 144.451 70.4697 144.988 71.111C145.526 71.7523 145.794 72.619 145.794 73.711C145.794 74.777 145.517 75.6307 144.962 76.272C144.416 76.922 143.68 77.247 142.752 77.247C142.605 77.247 142.436 77.234 142.245 77.208C142.081 77.182 141.834 77.0953 141.504 76.948C141.192 76.7833 140.941 76.5753 140.75 76.324V79.405H138.774ZM140.659 73.685C140.659 74.361 140.785 74.9027 141.036 75.31C141.296 75.7173 141.686 75.921 142.206 75.921C142.709 75.921 143.09 75.7173 143.35 75.31C143.61 74.9027 143.74 74.361 143.74 73.685C143.74 73.2517 143.688 72.879 143.584 72.567C143.489 72.255 143.355 72.0253 143.181 71.878C143.017 71.7307 142.852 71.6267 142.687 71.566C142.531 71.5053 142.371 71.475 142.206 71.475C141.808 71.475 141.448 71.6397 141.127 71.969C140.815 72.2897 140.659 72.8617 140.659 73.685ZM148.58 77V71.722H146.396V70.396H152.74V71.722H150.556V77H148.58ZM155.439 72.528H153.554C153.598 71.5833 154.035 70.903 154.867 70.487C155.075 70.3743 155.305 70.2963 155.556 70.253C155.955 70.1837 156.323 70.149 156.661 70.149C157.849 70.149 158.659 70.396 159.092 70.89C159.378 71.176 159.547 71.4793 159.599 71.8C159.66 72.0427 159.69 72.3157 159.69 72.619L159.651 75.635C159.643 76.077 159.664 76.3847 159.716 76.558C159.768 76.7313 159.877 76.8397 160.041 76.883V77H157.961L157.792 76.35H157.753C157.285 76.948 156.549 77.247 155.543 77.247C155.145 77.247 154.794 77.195 154.49 77.091C154.196 76.9957 153.97 76.8787 153.814 76.74C153.667 76.6013 153.546 76.4367 153.45 76.246C153.355 76.0553 153.294 75.8907 153.268 75.752C153.251 75.6133 153.242 75.4747 153.242 75.336C153.242 74.7813 153.411 74.3437 153.749 74.023C153.879 73.893 154.07 73.7717 154.321 73.659C154.633 73.5117 155.093 73.3817 155.699 73.269C155.907 73.2343 156.094 73.2127 156.258 73.204C156.77 73.1433 157.043 73.1087 157.077 73.1C157.303 73.0567 157.459 72.996 157.545 72.918C157.641 72.84 157.697 72.71 157.714 72.528V72.346C157.688 71.7653 157.333 71.475 156.648 71.475C155.842 71.475 155.439 71.826 155.439 72.528ZM157.727 74.27V73.854C157.441 73.9927 157.251 74.0663 157.155 74.075C156.93 74.1097 156.687 74.153 156.427 74.205C155.656 74.3263 155.27 74.6427 155.27 75.154C155.27 75.414 155.366 75.609 155.556 75.739C155.756 75.8603 155.998 75.921 156.284 75.921C156.484 75.921 156.683 75.882 156.882 75.804C157.108 75.7087 157.303 75.5267 157.467 75.258C157.641 74.9807 157.727 74.6513 157.727 74.27ZM160.957 77.026V75.661C161.147 75.6783 161.256 75.687 161.282 75.687C161.715 75.687 162.01 75.5267 162.166 75.206C162.322 74.9027 162.421 74.2397 162.465 73.217L162.53 70.396H168.159V77H166.183V71.722H164.415L164.389 73.204C164.38 74.4607 164.211 75.4227 163.882 76.09C163.734 76.376 163.544 76.5927 163.31 76.74C162.928 76.9827 162.4 77.104 161.724 77.104C161.472 77.104 161.217 77.078 160.957 77.026Z" fill="black"/>
</svg>
